{
  "asset": {
    "generator": "glTF-Transform v4.4.2",
    "version": "2.0",
    "extras": {
      "author": "Boxroom 3D (https://sketchfab.com/Boxroom_3D)",
      "license": "CC-BY-4.0 (http://creativecommons.org/licenses/by/4.0/)",
      "source": "https://sketchfab.com/3d-models/polaroid-camera-920ad62faa9d4aa48bc6e9535f3d07fe",
      "title": "Polaroid Camera"
    }
  },
  "accessors": [
    {
      "type": "VEC3",
      "componentType": 5126,
      "count": 261,
      "max": [
        0.06471261382102966,
        0.10332411527633667,
        1.6833634930435437e-8
      ],
      "min": [
        -0.06471260637044907,
        -0.07927681505680084,
        -1.2915831959503521e-8
      ],
      "bufferView": 0,
      "byteOffset": 0
    },
    {
      "type": "VEC3",
      "componentType": 5126,
      "count": 261,
      "bufferView": 0,
      "byteOffset": 12
    },
    {
      "type": "VEC2",
      "componentType": 5126,
      "count": 261,
      "bufferView": 0,
      "byteOffset": 24
    },
    {
      "type": "SCALAR",
      "componentType": 5125,
      "count": 261,
      "bufferView": 1,
      "byteOffset": 0
    },
    {
      "type": "SCALAR",
      "componentType": 5125,
      "count": 1803,
      "bufferView": 1,
      "byteOffset": 1044
    },
    {
      "type": "SCALAR",
      "componentType": 5125,
      "count": 3600,
      "bufferView": 1,
      "byteOffset": 8256
    },
    {
      "type": "SCALAR",
      "componentType": 5125,
      "count": 1728,
      "bufferView": 1,
      "byteOffset": 22656
    },
    {
      "type": "SCALAR",
      "componentType": 5125,
      "count": 16320,
      "bufferView": 1,
      "byteOffset": 29568
    },
    {
      "type": "SCALAR",
      "componentType": 5125,
      "count": 347493,
      "bufferView": 1,
      "byteOffset": 94848
    },
    {
      "type": "SCALAR",
      "componentType": 5125,
      "count": 105723,
      "bufferView": 1,
      "byteOffset": 1484820
    },
    {
      "type": "SCALAR",
      "componentType": 5125,
      "count": 30720,
      "bufferView": 1,
      "byteOffset": 1907712
    },
    {
      "type": "SCALAR",
      "componentType": 5125,
      "count": 207336,
      "bufferView": 1,
      "byteOffset": 2030592
    },
    {
      "type": "SCALAR",
      "componentType": 5125,
      "count": 4608,
      "bufferView": 1,
      "byteOffset": 2859936
    },
    {
      "type": "SCALAR",
      "componentType": 5125,
      "count": 1920,
      "bufferView": 1,
      "byteOffset": 2878368
    },
    {
      "type": "SCALAR",
      "componentType": 5125,
      "count": 864,
      "bufferView": 1,
      "byteOffset": 2886048
    },
    {
      "type": "SCALAR",
      "componentType": 5125,
      "count": 8064,
      "bufferView": 1,
      "byteOffset": 2889504
    },
    {
      "type": "SCALAR",
      "componentType": 5125,
      "count": 6,
      "bufferView": 1,
      "byteOffset": 2921760
    },
    {
      "type": "SCALAR",
      "componentType": 5125,
      "count": 6,
      "bufferView": 1,
      "byteOffset": 2921784
    },
    {
      "type": "SCALAR",
      "componentType": 5125,
      "count": 6,
      "bufferView": 1,
      "byteOffset": 2921808
    },
    {
      "type": "SCALAR",
      "componentType": 5125,
      "count": 6,
      "bufferView": 1,
      "byteOffset": 2921832
    },
    {
      "type": "SCALAR",
      "componentType": 5125,
      "count": 6,
      "bufferView": 1,
      "byteOffset": 2921856
    },
    {
      "type": "SCALAR",
      "componentType": 5125,
      "count": 168,
      "bufferView": 1,
      "byteOffset": 2921880
    },
    {
      "type": "SCALAR",
      "componentType": 5125,
      "count": 4728,
      "bufferView": 1,
      "byteOffset": 2922552
    },
    {
      "type": "SCALAR",
      "componentType": 5125,
      "count": 6,
      "bufferView": 1,
      "byteOffset": 2941464
    },
    {
      "type": "SCALAR",
      "componentType": 5125,
      "count": 4128,
      "bufferView": 1,
      "byteOffset": 2941488
    },
    {
      "type": "SCALAR",
      "componentType": 5125,
      "count": 4176,
      "bufferView": 1,
      "byteOffset": 2958000
    },
    {
      "type": "SCALAR",
      "componentType": 5125,
      "count": 3636,
      "bufferView": 1,
      "byteOffset": 2974704
    },
    {
      "type": "SCALAR",
      "componentType": 5125,
      "count": 24000,
      "bufferView": 1,
      "byteOffset": 2989248
    },
    {
      "type": "SCALAR",
      "componentType": 5125,
      "count": 90,
      "bufferView": 1,
      "byteOffset": 3085248
    },
    {
      "type": "SCALAR",
      "componentType": 5125,
      "count": 1809,
      "bufferView": 1,
      "byteOffset": 3085608
    },
    {
      "type": "SCALAR",
      "componentType": 5125,
      "count": 6144,
      "bufferView": 1,
      "byteOffset": 3092844
    },
    {
      "type": "SCALAR",
      "componentType": 5125,
      "count": 3072,
      "bufferView": 1,
      "byteOffset": 3117420
    },
    {
      "type": "SCALAR",
      "componentType": 5125,
      "count": 27648,
      "bufferView": 1,
      "byteOffset": 3129708
    },
    {
      "type": "SCALAR",
      "componentType": 5125,
      "count": 630,
      "bufferView": 1,
      "byteOffset": 3240300
    },
    {
      "type": "SCALAR",
      "componentType": 5125,
      "count": 1908,
      "bufferView": 1,
      "byteOffset": 3242820
    },
    {
      "type": "SCALAR",
      "componentType": 5125,
      "count": 948,
      "bufferView": 1,
      "byteOffset": 3250452
    },
    {
      "type": "VEC3",
      "componentType": 5126,
      "count": 1795,
      "max": [
        -0.018159091472625732,
        0.33841264247894287,
        2.090667727827622e-8
      ],
      "min": [
        -0.5967111587524414,
        -0.1613900512456894,
        -2.83389738342521e-8
      ],
      "bufferView": 2,
      "byteOffset": 0
    },
    {
      "type": "VEC3",
      "componentType": 5126,
      "count": 1795,
      "bufferView": 2,
      "byteOffset": 12
    },
    {
      "type": "VEC2",
      "componentType": 5126,
      "count": 1795,
      "bufferView": 2,
      "byteOffset": 24
    },
    {
      "type": "VEC3",
      "componentType": 5126,
      "count": 1136,
      "max": [
        0.11880021542310715,
        0.11880261451005936,
        0.018536100164055824
      ],
      "min": [
        -0.11880039423704147,
        -0.11880070716142654,
        -0.050846461206674576
      ],
      "bufferView": 3,
      "byteOffset": 0
    },
    {
      "type": "VEC3",
      "componentType": 5126,
      "count": 1136,
      "bufferView": 3,
      "byteOffset": 12
    },
    {
      "type": "VEC4",
      "componentType": 5126,
      "count": 1136,
      "bufferView": 3,
      "byteOffset": 24
    },
    {
      "type": "VEC2",
      "componentType": 5126,
      "count": 1136,
      "bufferView": 3,
      "byteOffset": 40
    },
    {
      "type": "VEC3",
      "componentType": 5126,
      "count": 1148,
      "max": [
        0.08866824209690094,
        0.08965573459863663,
        0.018688803538680077
      ],
      "min": [
        -0.08724604547023773,
        -0.0903882086277008,
        0.018688781186938286
      ],
      "bufferView": 4,
      "byteOffset": 0
    },
    {
      "type": "VEC3",
      "componentType": 5126,
      "count": 1148,
      "bufferView": 4,
      "byteOffset": 12
    },
    {
      "type": "VEC2",
      "componentType": 5126,
      "count": 1148,
      "bufferView": 4,
      "byteOffset": 24
    },
    {
      "type": "VEC3",
      "componentType": 5126,
      "count": 3040,
      "max": [
        -1.3221653699874878,
        2.73663330078125,
        0.7773825526237488
      ],
      "min": [
        -2.121530771255493,
        1.3057135343551636,
        0.7478196024894714
      ],
      "bufferView": 5,
      "byteOffset": 0
    },
    {
      "type": "VEC3",
      "componentType": 5126,
      "count": 3040,
      "bufferView": 5,
      "byteOffset": 12
    },
    {
      "type": "VEC4",
      "componentType": 5126,
      "count": 3040,
      "bufferView": 5,
      "byteOffset": 24
    },
    {
      "type": "VEC2",
      "componentType": 5126,
      "count": 3040,
      "bufferView": 5,
      "byteOffset": 40
    },
    {
      "type": "VEC3",
      "componentType": 5126,
      "count": 65532,
      "max": [
        2.4828667640686035,
        2.892789363861084,
        2.4027886390686035
      ],
      "min": [
        -2.4828667640686035,
        0.032050374895334244,
        -0.000727224862203002
      ],
      "bufferView": 6,
      "byteOffset": 0
    },
    {
      "type": "VEC3",
      "componentType": 5126,
      "count": 65532,
      "bufferView": 6,
      "byteOffset": 12
    },
    {
      "type": "VEC4",
      "componentType": 5126,
      "count": 65532,
      "bufferView": 6,
      "byteOffset": 24
    },
    {
      "type": "VEC2",
      "componentType": 5126,
      "count": 65532,
      "bufferView": 6,
      "byteOffset": 40
    },
    {
      "type": "VEC3",
      "componentType": 5126,
      "count": 21155,
      "max": [
        2.4828665256500244,
        2.892789363861084,
        2.4027884006500244
      ],
      "min": [
        -2.454867362976074,
        0.032050374895334244,
        -0.000727224862203002
      ],
      "bufferView": 7,
      "byteOffset": 0
    },
    {
      "type": "VEC3",
      "componentType": 5126,
      "count": 21155,
      "bufferView": 7,
      "byteOffset": 12
    },
    {
      "type": "VEC4",
      "componentType": 5126,
      "count": 21155,
      "bufferView": 7,
      "byteOffset": 24
    },
    {
      "type": "VEC2",
      "componentType": 5126,
      "count": 21155,
      "bufferView": 7,
      "byteOffset": 40
    },
    {
      "type": "VEC3",
      "componentType": 5126,
      "count": 5778,
      "max": [
        -1.6306167840957642,
        1.0238343477249146,
        0.8913269639015198
      ],
      "min": [
        -2.143430471420288,
        0.5168174505233765,
        0.8156788945198059
      ],
      "bufferView": 8,
      "byteOffset": 0
    },
    {
      "type": "VEC3",
      "componentType": 5126,
      "count": 5778,
      "bufferView": 8,
      "byteOffset": 12
    },
    {
      "type": "VEC2",
      "componentType": 5126,
      "count": 5778,
      "bufferView": 8,
      "byteOffset": 24
    },
    {
      "type": "VEC3",
      "componentType": 5126,
      "count": 45857,
      "max": [
        2.2026381492614746,
        2.41540265083313,
        2.812445640563965
      ],
      "min": [
        -2.70641827583313,
        -1.5465222597122192,
        -3.361011028289795
      ],
      "bufferView": 9,
      "byteOffset": 0
    },
    {
      "type": "VEC3",
      "componentType": 5126,
      "count": 45857,
      "bufferView": 9,
      "byteOffset": 12
    },
    {
      "type": "VEC4",
      "componentType": 5126,
      "count": 45857,
      "bufferView": 9,
      "byteOffset": 24
    },
    {
      "type": "VEC2",
      "componentType": 5126,
      "count": 45857,
      "bufferView": 9,
      "byteOffset": 40
    },
    {
      "type": "VEC3",
      "componentType": 5126,
      "count": 1051,
      "max": [
        -2.1136343479156494,
        0.7478231191635132,
        0.5492928624153137
      ],
      "min": [
        -2.4936487674713135,
        0.6348028779029846,
        0.4343552887439728
      ],
      "bufferView": 10,
      "byteOffset": 0
    },
    {
      "type": "VEC3",
      "componentType": 5126,
      "count": 1051,
      "bufferView": 10,
      "byteOffset": 12
    },
    {
      "type": "VEC2",
      "componentType": 5126,
      "count": 1051,
      "bufferView": 10,
      "byteOffset": 24
    },
    {
      "type": "VEC3",
      "componentType": 5126,
      "count": 493,
      "max": [
        -1.8642572164535522,
        0.763072669506073,
        0.4174259305000305
      ],
      "min": [
        -1.9767892360687256,
        0.6505299806594849,
        0.40649139881134033
      ],
      "bufferView": 11,
      "byteOffset": 0
    },
    {
      "type": "VEC3",
      "componentType": 5126,
      "count": 493,
      "bufferView": 11,
      "byteOffset": 12
    },
    {
      "type": "VEC2",
      "componentType": 5126,
      "count": 493,
      "bufferView": 11,
      "byteOffset": 24
    },
    {
      "type": "VEC3",
      "componentType": 5126,
      "count": 205,
      "max": [
        1.8000235557556152,
        1.981867790222168,
        -2.1332831382751465
      ],
      "min": [
        1.5837485790252686,
        1.7757526636123657,
        -2.1397104263305664
      ],
      "bufferView": 12,
      "byteOffset": 0
    },
    {
      "type": "VEC3",
      "componentType": 5126,
      "count": 205,
      "bufferView": 12,
      "byteOffset": 12
    },
    {
      "type": "VEC2",
      "componentType": 5126,
      "count": 205,
      "bufferView": 12,
      "byteOffset": 24
    },
    {
      "type": "VEC3",
      "componentType": 5126,
      "count": 1650,
      "max": [
        2.0458199977874756,
        2.2238974571228027,
        -2.1375679969787598
      ],
      "min": [
        1.2378075122833252,
        1.4169572591781616,
        -2.537763833999634
      ],
      "bufferView": 13,
      "byteOffset": 0
    },
    {
      "type": "VEC3",
      "componentType": 5126,
      "count": 1650,
      "bufferView": 13,
      "byteOffset": 12
    },
    {
      "type": "VEC2",
      "componentType": 5126,
      "count": 1650,
      "bufferView": 13,
      "byteOffset": 24
    },
    {
      "type": "VEC3",
      "componentType": 5126,
      "count": 4,
      "max": [
        0.18375355005264282,
        0.02677238918840885,
        4.361775829408998e-9
      ],
      "min": [
        -0.18375355005264282,
        -0.02677238918840885,
        -4.361775829408998e-9
      ],
      "bufferView": 14,
      "byteOffset": 0
    },
    {
      "type": "VEC3",
      "componentType": 5126,
      "count": 4,
      "bufferView": 14,
      "byteOffset": 12
    },
    {
      "type": "VEC2",
      "componentType": 5126,
      "count": 4,
      "bufferView": 14,
      "byteOffset": 24
    },
    {
      "type": "VEC3",
      "componentType": 5126,
      "count": 4,
      "max": [
        0.18375355005264282,
        -0.055686578154563904,
        -9.072495643636103e-9
      ],
      "min": [
        -0.18375355005264282,
        -0.10923135280609131,
        -1.77960473024541e-8
      ],
      "bufferView": 15,
      "byteOffset": 0
    },
    {
      "type": "VEC3",
      "componentType": 5126,
      "count": 4,
      "bufferView": 15,
      "byteOffset": 12
    },
    {
      "type": "VEC2",
      "componentType": 5126,
      "count": 4,
      "bufferView": 15,
      "byteOffset": 24
    },
    {
      "type": "VEC3",
      "componentType": 5126,
      "count": 4,
      "max": [
        0.18375355005264282,
        -0.1381455361843109,
        -2.2506766228502784e-8
      ],
      "min": [
        -0.18375355005264282,
        -0.1916903257369995,
        -3.123031788732078e-8
      ],
      "bufferView": 16,
      "byteOffset": 0
    },
    {
      "type": "VEC3",
      "componentType": 5126,
      "count": 4,
      "bufferView": 16,
      "byteOffset": 12
    },
    {
      "type": "VEC2",
      "componentType": 5126,
      "count": 4,
      "bufferView": 16,
      "byteOffset": 24
    },
    {
      "type": "VEC3",
      "componentType": 5126,
      "count": 4,
      "max": [
        0.18375355005264282,
        -0.22060449421405792,
        -3.5941035037012625e-8
      ],
      "min": [
        -0.18375355005264282,
        -0.2741492688655853,
        -4.466458491947378e-8
      ],
      "bufferView": 17,
      "byteOffset": 0
    },
    {
      "type": "VEC3",
      "componentType": 5126,
      "count": 4,
      "bufferView": 17,
      "byteOffset": 12
    },
    {
      "type": "VEC2",
      "componentType": 5126,
      "count": 4,
      "bufferView": 17,
      "byteOffset": 24
    },
    {
      "type": "VEC3",
      "componentType": 5126,
      "count": 4,
      "max": [
        0.18375355005264282,
        -0.3131656348705292,
        -5.102116062971618e-8
      ],
      "min": [
        -0.18375355005264282,
        -0.41601601243019104,
        -6.777761285547967e-8
      ],
      "bufferView": 18,
      "byteOffset": 0
    },
    {
      "type": "VEC3",
      "componentType": 5126,
      "count": 4,
      "bufferView": 18,
      "byteOffset": 12
    },
    {
      "type": "VEC2",
      "componentType": 5126,
      "count": 4,
      "bufferView": 18,
      "byteOffset": 24
    },
    {
      "type": "VEC3",
      "componentType": 5126,
      "count": 106,
      "max": [
        0.8047268390655518,
        0.05757656693458557,
        0.007598350290209055
      ],
      "min": [
        -0.06139650195837021,
        -0.057579703629016876,
        -0.007598350290209055
      ],
      "bufferView": 19,
      "byteOffset": 0
    },
    {
      "type": "VEC3",
      "componentType": 5126,
      "count": 106,
      "bufferView": 19,
      "byteOffset": 12
    },
    {
      "type": "VEC4",
      "componentType": 5126,
      "count": 106,
      "bufferView": 19,
      "byteOffset": 24
    },
    {
      "type": "VEC2",
      "componentType": 5126,
      "count": 106,
      "bufferView": 19,
      "byteOffset": 40
    },
    {
      "type": "VEC3",
      "componentType": 5126,
      "count": 3128,
      "max": [
        0.3614065945148468,
        0.13987717032432556,
        0.08928030729293823
      ],
      "min": [
        -3.681288719177246,
        -0.13987717032432556,
        -0.08928030729293823
      ],
      "bufferView": 20,
      "byteOffset": 0
    },
    {
      "type": "VEC3",
      "componentType": 5126,
      "count": 3128,
      "bufferView": 20,
      "byteOffset": 12
    },
    {
      "type": "VEC4",
      "componentType": 5126,
      "count": 3128,
      "bufferView": 20,
      "byteOffset": 24
    },
    {
      "type": "VEC2",
      "componentType": 5126,
      "count": 3128,
      "bufferView": 20,
      "byteOffset": 40
    },
    {
      "type": "VEC3",
      "componentType": 5126,
      "count": 4,
      "max": [
        0.40015023946762085,
        0.712820291519165,
        0.00009748156298883259
      ],
      "min": [
        -0.40241971611976624,
        -0.7244660258293152,
        -0.00009583745122654364
      ],
      "bufferView": 21,
      "byteOffset": 0
    },
    {
      "type": "VEC3",
      "componentType": 5126,
      "count": 4,
      "bufferView": 21,
      "byteOffset": 12
    },
    {
      "type": "VEC2",
      "componentType": 5126,
      "count": 4,
      "bufferView": 21,
      "byteOffset": 24
    },
    {
      "type": "VEC3",
      "componentType": 5126,
      "count": 1293,
      "max": [
        0.16556619107723236,
        0.16556623578071594,
        0.1698765903711319
      ],
      "min": [
        -0.16556619107723236,
        -0.16556616127490997,
        -0.1698766052722931
      ],
      "bufferView": 22,
      "byteOffset": 0
    },
    {
      "type": "VEC3",
      "componentType": 5126,
      "count": 1293,
      "bufferView": 22,
      "byteOffset": 12
    },
    {
      "type": "VEC4",
      "componentType": 5126,
      "count": 1293,
      "bufferView": 22,
      "byteOffset": 24
    },
    {
      "type": "VEC2",
      "componentType": 5126,
      "count": 1293,
      "bufferView": 22,
      "byteOffset": 40
    },
    {
      "type": "VEC3",
      "componentType": 5126,
      "count": 1622,
      "max": [
        0.2844788432121277,
        0.1350114345550537,
        0.11792398244142532
      ],
      "min": [
        -0.2844999432563782,
        -0.13500605523586273,
        -0.04896710440516472
      ],
      "bufferView": 23,
      "byteOffset": 0
    },
    {
      "type": "VEC3",
      "componentType": 5126,
      "count": 1622,
      "bufferView": 23,
      "byteOffset": 12
    },
    {
      "type": "VEC2",
      "componentType": 5126,
      "count": 1622,
      "bufferView": 23,
      "byteOffset": 24
    },
    {
      "type": "VEC3",
      "componentType": 5126,
      "count": 1480,
      "max": [
        0.21269433200359344,
        0.10658280551433563,
        0.14363576471805573
      ],
      "min": [
        -0.21269427239894867,
        -0.10658280551433563,
        -0.146127387881279
      ],
      "bufferView": 24,
      "byteOffset": 0
    },
    {
      "type": "VEC3",
      "componentType": 5126,
      "count": 1480,
      "bufferView": 24,
      "byteOffset": 12
    },
    {
      "type": "VEC2",
      "componentType": 5126,
      "count": 1480,
      "bufferView": 24,
      "byteOffset": 24
    },
    {
      "type": "VEC3",
      "componentType": 5126,
      "count": 8123,
      "max": [
        0.447129487991333,
        0.19673962891101837,
        0.19864808022975922
      ],
      "min": [
        -0.4993358552455902,
        -0.13648784160614014,
        -0.12859421968460083
      ],
      "bufferView": 25,
      "byteOffset": 0
    },
    {
      "type": "VEC3",
      "componentType": 5126,
      "count": 8123,
      "bufferView": 25,
      "byteOffset": 12
    },
    {
      "type": "VEC2",
      "componentType": 5126,
      "count": 8123,
      "bufferView": 25,
      "byteOffset": 24
    },
    {
      "type": "VEC3",
      "componentType": 5126,
      "count": 32,
      "max": [
        0.11157723516225815,
        0.11157723516225815,
        1.4461630115647495e-8
      ],
      "min": [
        -0.11157723516225815,
        -0.11157723516225815,
        -2.1894848600823025e-8
      ],
      "bufferView": 26,
      "byteOffset": 0
    },
    {
      "type": "VEC3",
      "componentType": 5126,
      "count": 32,
      "bufferView": 26,
      "byteOffset": 12
    },
    {
      "type": "VEC2",
      "componentType": 5126,
      "count": 32,
      "bufferView": 26,
      "byteOffset": 24
    },
    {
      "type": "VEC3",
      "componentType": 5126,
      "count": 1792,
      "max": [
        0.5733943581581116,
        0.14330168068408966,
        8.751475100154948e-9
      ],
      "min": [
        -0.5692678093910217,
        -0.11591679602861404,
        -1.081897593735448e-8
      ],
      "bufferView": 27,
      "byteOffset": 0
    },
    {
      "type": "VEC3",
      "componentType": 5126,
      "count": 1792,
      "bufferView": 27,
      "byteOffset": 12
    },
    {
      "type": "VEC2",
      "componentType": 5126,
      "count": 1792,
      "bufferView": 27,
      "byteOffset": 24
    },
    {
      "type": "VEC3",
      "componentType": 5126,
      "count": 1129,
      "max": [
        0.9083772897720337,
        0.889975368976593,
        0.32193076610565186
      ],
      "min": [
        -0.8828453421592712,
        -0.9012472629547119,
        -0.5345889925956726
      ],
      "bufferView": 28,
      "byteOffset": 0
    },
    {
      "type": "VEC3",
      "componentType": 5126,
      "count": 1129,
      "bufferView": 28,
      "byteOffset": 12
    },
    {
      "type": "VEC4",
      "componentType": 5126,
      "count": 1129,
      "bufferView": 28,
      "byteOffset": 24
    },
    {
      "type": "VEC2",
      "componentType": 5126,
      "count": 1129,
      "bufferView": 28,
      "byteOffset": 40
    },
    {
      "type": "VEC3",
      "componentType": 5126,
      "count": 664,
      "max": [
        0.3565977215766907,
        0.35734879970550537,
        -0.04243234172463417
      ],
      "min": [
        -0.3551916778087616,
        -0.35455945134162903,
        -0.17606210708618164
      ],
      "bufferView": 29,
      "byteOffset": 0
    },
    {
      "type": "VEC3",
      "componentType": 5126,
      "count": 664,
      "bufferView": 29,
      "byteOffset": 12
    },
    {
      "type": "VEC2",
      "componentType": 5126,
      "count": 664,
      "bufferView": 29,
      "byteOffset": 24
    },
    {
      "type": "VEC3",
      "componentType": 5126,
      "count": 5222,
      "max": [
        0.8219225406646729,
        0.8109645247459412,
        0.32192546129226685
      ],
      "min": [
        -0.8111974596977234,
        -0.8221555352210999,
        -0.17606210708618164
      ],
      "bufferView": 30,
      "byteOffset": 0
    },
    {
      "type": "VEC3",
      "componentType": 5126,
      "count": 5222,
      "bufferView": 30,
      "byteOffset": 12
    },
    {
      "type": "VEC2",
      "componentType": 5126,
      "count": 5222,
      "bufferView": 30,
      "byteOffset": 24
    },
    {
      "type": "VEC3",
      "componentType": 5126,
      "count": 622,
      "max": [
        0.07131198793649673,
        0.05614851042628288,
        3.177765961481782e-8
      ],
      "min": [
        -0.08324582874774933,
        -0.04432692751288414,
        -2.7187974538378512e-8
      ],
      "bufferView": 31,
      "byteOffset": 0
    },
    {
      "type": "VEC3",
      "componentType": 5126,
      "count": 622,
      "bufferView": 31,
      "byteOffset": 12
    },
    {
      "type": "VEC2",
      "componentType": 5126,
      "count": 622,
      "bufferView": 31,
      "byteOffset": 24
    },
    {
      "type": "VEC3",
      "componentType": 5126,
      "count": 360,
      "max": [
        0.47922104597091675,
        0.479220986366272,
        0.017561446875333786
      ],
      "min": [
        -0.47922104597091675,
        -0.47922107577323914,
        -0.02474009059369564
      ],
      "bufferView": 32,
      "byteOffset": 0
    },
    {
      "type": "VEC3",
      "componentType": 5126,
      "count": 360,
      "bufferView": 32,
      "byteOffset": 12
    },
    {
      "type": "VEC2",
      "componentType": 5126,
      "count": 360,
      "bufferView": 32,
      "byteOffset": 24
    },
    {
      "type": "VEC3",
      "componentType": 5126,
      "count": 905,
      "max": [
        0.5106543302536011,
        0.043049994856119156,
        7.01373448208642e-9
      ],
      "min": [
        -0.5022866129875183,
        -0.03402160480618477,
        -5.542823089399462e-9
      ],
      "bufferView": 33,
      "byteOffset": 0
    },
    {
      "type": "VEC3",
      "componentType": 5126,
      "count": 905,
      "bufferView": 33,
      "byteOffset": 12
    },
    {
      "type": "VEC2",
      "componentType": 5126,
      "count": 905,
      "bufferView": 33,
      "byteOffset": 24
    }
  ],
  "bufferViews": [
    {
      "buffer": 0,
      "byteOffset": 0,
      "byteLength": 8352,
      "byteStride": 32,
      "target": 34962
    },
    {
      "buffer": 0,
      "byteOffset": 8352,
      "byteLength": 3254244,
      "target": 34963
    },
    {
      "buffer": 0,
      "byteOffset": 3262596,
      "byteLength": 57440,
      "byteStride": 32,
      "target": 34962
    },
    {
      "buffer": 0,
      "byteOffset": 3320036,
      "byteLength": 54528,
      "byteStride": 48,
      "target": 34962
    },
    {
      "buffer": 0,
      "byteOffset": 3374564,
      "byteLength": 36736,
      "byteStride": 32,
      "target": 34962
    },
    {
      "buffer": 0,
      "byteOffset": 3411300,
      "byteLength": 145920,
      "byteStride": 48,
      "target": 34962
    },
    {
      "buffer": 0,
      "byteOffset": 3557220,
      "byteLength": 3145536,
      "byteStride": 48,
      "target": 34962
    },
    {
      "buffer": 0,
      "byteOffset": 6702756,
      "byteLength": 1015440,
      "byteStride": 48,
      "target": 34962
    },
    {
      "buffer": 0,
      "byteOffset": 7718196,
      "byteLength": 184896,
      "byteStride": 32,
      "target": 34962
    },
    {
      "buffer": 0,
      "byteOffset": 7903092,
      "byteLength": 2201136,
      "byteStride": 48,
      "target": 34962
    },
    {
      "buffer": 0,
      "byteOffset": 10104228,
      "byteLength": 33632,
      "byteStride": 32,
      "target": 34962
    },
    {
      "buffer": 0,
      "byteOffset": 10137860,
      "byteLength": 15776,
      "byteStride": 32,
      "target": 34962
    },
    {
      "buffer": 0,
      "byteOffset": 10153636,
      "byteLength": 6560,
      "byteStride": 32,
      "target": 34962
    },
    {
      "buffer": 0,
      "byteOffset": 10160196,
      "byteLength": 52800,
      "byteStride": 32,
      "target": 34962
    },
    {
      "buffer": 0,
      "byteOffset": 10212996,
      "byteLength": 128,
      "byteStride": 32,
      "target": 34962
    },
    {
      "buffer": 0,
      "byteOffset": 10213124,
      "byteLength": 128,
      "byteStride": 32,
      "target": 34962
    },
    {
      "buffer": 0,
      "byteOffset": 10213252,
      "byteLength": 128,
      "byteStride": 32,
      "target": 34962
    },
    {
      "buffer": 0,
      "byteOffset": 10213380,
      "byteLength": 128,
      "byteStride": 32,
      "target": 34962
    },
    {
      "buffer": 0,
      "byteOffset": 10213508,
      "byteLength": 128,
      "byteStride": 32,
      "target": 34962
    },
    {
      "buffer": 0,
      "byteOffset": 10213636,
      "byteLength": 5088,
      "byteStride": 48,
      "target": 34962
    },
    {
      "buffer": 0,
      "byteOffset": 10218724,
      "byteLength": 150144,
      "byteStride": 48,
      "target": 34962
    },
    {
      "buffer": 0,
      "byteOffset": 10368868,
      "byteLength": 128,
      "byteStride": 32,
      "target": 34962
    },
    {
      "buffer": 0,
      "byteOffset": 10368996,
      "byteLength": 62064,
      "byteStride": 48,
      "target": 34962
    },
    {
      "buffer": 0,
      "byteOffset": 10431060,
      "byteLength": 51904,
      "byteStride": 32,
      "target": 34962
    },
    {
      "buffer": 0,
      "byteOffset": 10482964,
      "byteLength": 47360,
      "byteStride": 32,
      "target": 34962
    },
    {
      "buffer": 0,
      "byteOffset": 10530324,
      "byteLength": 259936,
      "byteStride": 32,
      "target": 34962
    },
    {
      "buffer": 0,
      "byteOffset": 10790260,
      "byteLength": 1024,
      "byteStride": 32,
      "target": 34962
    },
    {
      "buffer": 0,
      "byteOffset": 10791284,
      "byteLength": 57344,
      "byteStride": 32,
      "target": 34962
    },
    {
      "buffer": 0,
      "byteOffset": 10848628,
      "byteLength": 54192,
      "byteStride": 48,
      "target": 34962
    },
    {
      "buffer": 0,
      "byteOffset": 10902820,
      "byteLength": 21248,
      "byteStride": 32,
      "target": 34962
    },
    {
      "buffer": 0,
      "byteOffset": 10924068,
      "byteLength": 167104,
      "byteStride": 32,
      "target": 34962
    },
    {
      "buffer": 0,
      "byteOffset": 11091172,
      "byteLength": 19904,
      "byteStride": 32,
      "target": 34962
    },
    {
      "buffer": 0,
      "byteOffset": 11111076,
      "byteLength": 11520,
      "byteStride": 32,
      "target": 34962
    },
    {
      "buffer": 0,
      "byteOffset": 11122596,
      "byteLength": 28960,
      "byteStride": 32,
      "target": 34962
    }
  ],
  "samplers": [
    {
      "magFilter": 9729,
      "minFilter": 9987,
      "wrapS": 10497,
      "wrapT": 10497
    }
  ],
  "textures": [
    {
      "source": 0,
      "sampler": 0
    },
    {
      "source": 1,
      "sampler": 0
    }
  ],
  "images": [
    {
      "mimeType": "image/jpeg",
      "uri": "textures/Blanco_normal.jpeg"
    },
    {
      "mimeType": "image/jpeg",
      "uri": "textures/material_baseColor.jpg"
    }
  ],
  "buffers": [
    {
      "uri": "scene.bin",
      "byteLength": 11151556
    }
  ],
  "materials": [
    {
      "name": "orangestripr",
      "doubleSided": true,
      "pbrMetallicRoughness": {
        "baseColorFactor": [
          0.989332,
          0.370241,
          0.024981,
          1
        ],
        "roughnessFactor": 0.5,
        "metallicFactor": 0
      }
    },
    {
      "name": "Negro01",
      "doubleSided": true,
      "pbrMetallicRoughness": {
        "baseColorFactor": [
          0,
          0,
          0,
          1
        ],
        "roughnessFactor": 0.5,
        "metallicFactor": 0
      }
    },
    {
      "name": "Blanco",
      "doubleSided": true,
      "pbrMetallicRoughness": {
        "baseColorFactor": [
          0.8,
          0.8,
          0.8,
          1
        ],
        "roughnessFactor": 0.5,
        "metallicFactor": 0
      },
      "normalTexture": {
        "index": 0,
        "scale": 0.8
      }
    },
    {
      "name": "Gris",
      "doubleSided": true,
      "pbrMetallicRoughness": {
        "baseColorFactor": [
          0.0607197,
          0.0607197,
          0.0607197,
          1
        ],
        "roughnessFactor": 0.5,
        "metallicFactor": 0
      }
    },
    {
      "name": "Negro",
      "doubleSided": true,
      "pbrMetallicRoughness": {
        "baseColorFactor": [
          0,
          0,
          0,
          1
        ],
        "roughnessFactor": 0.3,
        "metallicFactor": 0
      },
      "normalTexture": {
        "index": 0,
        "scale": 0.5
      }
    },
    {
      "name": "Rojo",
      "doubleSided": true,
      "pbrMetallicRoughness": {
        "baseColorFactor": [
          0.8,
          0,
          0.00688976,
          1
        ],
        "roughnessFactor": 0.5,
        "metallicFactor": 0
      }
    },
    {
      "name": "metal",
      "doubleSided": true,
      "pbrMetallicRoughness": {
        "baseColorFactor": [
          0.384375,
          0.384375,
          0.384375,
          1
        ],
        "roughnessFactor": 0.1
      }
    },
    {
      "name": "material",
      "doubleSided": true,
      "pbrMetallicRoughness": {
        "roughnessFactor": 0.5,
        "metallicFactor": 0,
        "baseColorTexture": {
          "index": 1
        }
      }
    },
    {
      "name": "Azul",
      "doubleSided": true,
      "pbrMetallicRoughness": {
        "baseColorFactor": [
          0.0268389,
          0.191914,
          0.8,
          1
        ],
        "roughnessFactor": 0.5,
        "metallicFactor": 0
      }
    },
    {
      "name": "Verde",
      "doubleSided": true,
      "pbrMetallicRoughness": {
        "baseColorFactor": [
          0.00913698,
          0.295693,
          0.00576931,
          1
        ],
        "roughnessFactor": 0.5,
        "metallicFactor": 0
      }
    },
    {
      "name": "Amarillo",
      "doubleSided": true,
      "pbrMetallicRoughness": {
        "baseColorFactor": [
          0.685957,
          0.418663,
          0.00181935,
          1
        ],
        "roughnessFactor": 0.5,
        "metallicFactor": 0
      }
    },
    {
      "name": "Naranja",
      "doubleSided": true,
      "pbrMetallicRoughness": {
        "baseColorFactor": [
          0.710555,
          0.137562,
          0.00859204,
          1
        ],
        "roughnessFactor": 0.5,
        "metallicFactor": 0
      }
    },
    {
      "name": "Blanco01",
      "doubleSided": true,
      "pbrMetallicRoughness": {
        "baseColorFactor": [
          0.8,
          0.8,
          0.8,
          1
        ],
        "roughnessFactor": 0.5,
        "metallicFactor": 0
      }
    }
  ],
  "meshes": [
    {
      "name": "Object_0",
      "primitives": [
        {
          "attributes": {
            "NORMAL": 1,
            "POSITION": 0,
            "TEXCOORD_0": 2
          },
          "mode": 4,
          "material": 0,
          "indices": 3
        }
      ]
    },
    {
      "name": "Object_1",
      "primitives": [
        {
          "attributes": {
            "NORMAL": 37,
            "POSITION": 36,
            "TEXCOORD_0": 38
          },
          "mode": 4,
          "material": 1,
          "indices": 4
        }
      ]
    },
    {
      "name": "Object_2",
      "primitives": [
        {
          "attributes": {
            "NORMAL": 40,
            "POSITION": 39,
            "TANGENT": 41,
            "TEXCOORD_0": 42
          },
          "mode": 4,
          "material": 2,
          "indices": 5
        }
      ]
    },
    {
      "name": "Object_3",
      "primitives": [
        {
          "attributes": {
            "NORMAL": 44,
            "POSITION": 43,
            "TEXCOORD_0": 45
          },
          "mode": 4,
          "material": 3,
          "indices": 6
        }
      ]
    },
    {
      "name": "Object_4",
      "primitives": [
        {
          "attributes": {
            "NORMAL": 47,
            "POSITION": 46,
            "TANGENT": 48,
            "TEXCOORD_0": 49
          },
          "mode": 4,
          "material": 4,
          "indices": 7
        }
      ]
    },
    {
      "name": "Object_5",
      "primitives": [
        {
          "attributes": {
            "NORMAL": 51,
            "POSITION": 50,
            "TANGENT": 52,
            "TEXCOORD_0": 53
          },
          "mode": 4,
          "material": 2,
          "indices": 8
        }
      ]
    },
    {
      "name": "Object_6",
      "primitives": [
        {
          "attributes": {
            "NORMAL": 55,
            "POSITION": 54,
            "TANGENT": 56,
            "TEXCOORD_0": 57
          },
          "mode": 4,
          "material": 2,
          "indices": 9
        }
      ]
    },
    {
      "name": "Object_7",
      "primitives": [
        {
          "attributes": {
            "NORMAL": 59,
            "POSITION": 58,
            "TEXCOORD_0": 60
          },
          "mode": 4,
          "material": 5,
          "indices": 10
        }
      ]
    },
    {
      "name": "Object_8",
      "primitives": [
        {
          "attributes": {
            "NORMAL": 62,
            "POSITION": 61,
            "TANGENT": 63,
            "TEXCOORD_0": 64
          },
          "mode": 4,
          "material": 4,
          "indices": 11
        }
      ]
    },
    {
      "name": "Object_9",
      "primitives": [
        {
          "attributes": {
            "NORMAL": 66,
            "POSITION": 65,
            "TEXCOORD_0": 67
          },
          "mode": 4,
          "material": 6,
          "indices": 12
        }
      ]
    },
    {
      "name": "Object_10",
      "primitives": [
        {
          "attributes": {
            "NORMAL": 69,
            "POSITION": 68,
            "TEXCOORD_0": 70
          },
          "mode": 4,
          "material": 3,
          "indices": 13
        }
      ]
    },
    {
      "name": "Object_11",
      "primitives": [
        {
          "attributes": {
            "NORMAL": 72,
            "POSITION": 71,
            "TEXCOORD_0": 73
          },
          "mode": 4,
          "material": 7,
          "indices": 14
        }
      ]
    },
    {
      "name": "Object_12",
      "primitives": [
        {
          "attributes": {
            "NORMAL": 75,
            "POSITION": 74,
            "TEXCOORD_0": 76
          },
          "mode": 4,
          "material": 1,
          "indices": 15
        }
      ]
    },
    {
      "name": "Object_13",
      "primitives": [
        {
          "attributes": {
            "NORMAL": 78,
            "POSITION": 77,
            "TEXCOORD_0": 79
          },
          "mode": 4,
          "material": 8,
          "indices": 16
        }
      ]
    },
    {
      "name": "Object_14",
      "primitives": [
        {
          "attributes": {
            "NORMAL": 81,
            "POSITION": 80,
            "TEXCOORD_0": 82
          },
          "mode": 4,
          "material": 9,
          "indices": 17
        }
      ]
    },
    {
      "name": "Object_15",
      "primitives": [
        {
          "attributes": {
            "NORMAL": 84,
            "POSITION": 83,
            "TEXCOORD_0": 85
          },
          "mode": 4,
          "material": 10,
          "indices": 18
        }
      ]
    },
    {
      "name": "Object_16",
      "primitives": [
        {
          "attributes": {
            "NORMAL": 87,
            "POSITION": 86,
            "TEXCOORD_0": 88
          },
          "mode": 4,
          "material": 11,
          "indices": 19
        }
      ]
    },
    {
      "name": "Object_17",
      "primitives": [
        {
          "attributes": {
            "NORMAL": 90,
            "POSITION": 89,
            "TEXCOORD_0": 91
          },
          "mode": 4,
          "material": 5,
          "indices": 20
        }
      ]
    },
    {
      "name": "Object_18",
      "primitives": [
        {
          "attributes": {
            "NORMAL": 93,
            "POSITION": 92,
            "TANGENT": 94,
            "TEXCOORD_0": 95
          },
          "mode": 4,
          "material": 2,
          "indices": 21
        }
      ]
    },
    {
      "name": "Object_19",
      "primitives": [
        {
          "attributes": {
            "NORMAL": 97,
            "POSITION": 96,
            "TANGENT": 98,
            "TEXCOORD_0": 99
          },
          "mode": 4,
          "material": 4,
          "indices": 22
        }
      ]
    },
    {
      "name": "Object_20",
      "primitives": [
        {
          "attributes": {
            "NORMAL": 101,
            "POSITION": 100,
            "TEXCOORD_0": 102
          },
          "mode": 4,
          "material": 7,
          "indices": 23
        }
      ]
    },
    {
      "name": "Object_21",
      "primitives": [
        {
          "attributes": {
            "NORMAL": 104,
            "POSITION": 103,
            "TANGENT": 105,
            "TEXCOORD_0": 106
          },
          "mode": 4,
          "material": 4,
          "indices": 24
        }
      ]
    },
    {
      "name": "Object_22",
      "primitives": [
        {
          "attributes": {
            "NORMAL": 108,
            "POSITION": 107,
            "TEXCOORD_0": 109
          },
          "mode": 4,
          "material": 10,
          "indices": 25
        }
      ]
    },
    {
      "name": "Object_23",
      "primitives": [
        {
          "attributes": {
            "NORMAL": 111,
            "POSITION": 110,
            "TEXCOORD_0": 112
          },
          "mode": 4,
          "material": 10,
          "indices": 26
        }
      ]
    },
    {
      "name": "Object_24",
      "primitives": [
        {
          "attributes": {
            "NORMAL": 114,
            "POSITION": 113,
            "TEXCOORD_0": 115
          },
          "mode": 4,
          "material": 1,
          "indices": 27
        }
      ]
    },
    {
      "name": "Object_25",
      "primitives": [
        {
          "attributes": {
            "NORMAL": 117,
            "POSITION": 116,
            "TEXCOORD_0": 118
          },
          "mode": 4,
          "material": 7,
          "indices": 28
        }
      ]
    },
    {
      "name": "Object_26",
      "primitives": [
        {
          "attributes": {
            "NORMAL": 120,
            "POSITION": 119,
            "TEXCOORD_0": 121
          },
          "mode": 4,
          "material": 12,
          "indices": 29
        }
      ]
    },
    {
      "name": "Object_27",
      "primitives": [
        {
          "attributes": {
            "NORMAL": 123,
            "POSITION": 122,
            "TANGENT": 124,
            "TEXCOORD_0": 125
          },
          "mode": 4,
          "material": 4,
          "indices": 30
        }
      ]
    },
    {
      "name": "Object_28",
      "primitives": [
        {
          "attributes": {
            "NORMAL": 127,
            "POSITION": 126,
            "TEXCOORD_0": 128
          },
          "mode": 4,
          "material": 7,
          "indices": 31
        }
      ]
    },
    {
      "name": "Object_29",
      "primitives": [
        {
          "attributes": {
            "NORMAL": 130,
            "POSITION": 129,
            "TEXCOORD_0": 131
          },
          "mode": 4,
          "material": 1,
          "indices": 32
        }
      ]
    },
    {
      "name": "Object_30",
      "primitives": [
        {
          "attributes": {
            "NORMAL": 133,
            "POSITION": 132,
            "TEXCOORD_0": 134
          },
          "mode": 4,
          "material": 10,
          "indices": 33
        }
      ]
    },
    {
      "name": "Object_31",
      "primitives": [
        {
          "attributes": {
            "NORMAL": 136,
            "POSITION": 135,
            "TEXCOORD_0": 137
          },
          "mode": 4,
          "material": 7,
          "indices": 34
        }
      ]
    },
    {
      "name": "Object_32",
      "primitives": [
        {
          "attributes": {
            "NORMAL": 139,
            "POSITION": 138,
            "TEXCOORD_0": 140
          },
          "mode": 4,
          "material": 3,
          "indices": 35
        }
      ]
    }
  ],
  "nodes": [
    {
      "name": "Sketchfab_model",
      "rotation": [
        -0.7071067811865475,
        0,
        0,
        0.7071067811865476
      ],
      "children": [
        1
      ]
    },
    {
      "name": "root",
      "children": [
        2
      ]
    },
    {
      "name": "GLTF_SceneRootNode",
      "rotation": [
        0.7071067811865475,
        0,
        0,
        0.7071067811865476
      ],
      "children": [
        3
      ]
    },
    {
      "name": "Empty_18",
      "children": [
        4,
        7,
        10,
        15,
        21,
        27,
        29,
        31,
        33,
        35,
        37,
        39,
        41,
        43,
        45,
        49,
        51,
        53
      ]
    },
    {
      "name": "2_0",
      "translation": [
        2.0508229732513428,
        1.7937144041061401,
        1.1810822486877441
      ],
      "children": [
        5,
        6
      ]
    },
    {
      "name": "Object_5",
      "mesh": 0
    },
    {
      "name": "Object_6",
      "mesh": 1
    },
    {
      "name": "BotonFlash_1",
      "translation": [
        -0.9673665761947632,
        3.7136008739471436,
        1.1748325824737549
      ],
      "children": [
        8,
        9
      ]
    },
    {
      "name": "Object_8",
      "mesh": 2
    },
    {
      "name": "Object_9",
      "mesh": 3
    },
    {
      "name": "CarcasaBlanca_2",
      "translation": [
        0.001795053482055664,
        1.1384221315383911,
        0.39432182908058167
      ],
      "children": [
        11,
        12,
        13,
        14
      ]
    },
    {
      "name": "Object_11",
      "mesh": 4
    },
    {
      "name": "Object_12",
      "mesh": 5
    },
    {
      "name": "Object_13",
      "mesh": 6
    },
    {
      "name": "Object_14",
      "mesh": 7
    },
    {
      "name": "CarcasaNegra_3",
      "translation": [
        0.2536849081516266,
        1.6089694499969482,
        -0.026371246203780174
      ],
      "children": [
        16,
        17,
        18,
        19,
        20
      ]
    },
    {
      "name": "Object_16",
      "mesh": 8
    },
    {
      "name": "Object_17",
      "mesh": 9
    },
    {
      "name": "Object_18",
      "mesh": 10
    },
    {
      "name": "Object_19",
      "mesh": 11
    },
    {
      "name": "Object_20",
      "mesh": 12
    },
    {
      "name": "Colores_4",
      "translation": [
        -1.5469107627868652,
        0.5427660942077637,
        2.786987066268921
      ],
      "children": [
        22,
        23,
        24,
        25,
        26
      ]
    },
    {
      "name": "Object_22",
      "mesh": 13
    },
    {
      "name": "Object_23",
      "mesh": 14
    },
    {
      "name": "Object_24",
      "mesh": 15
    },
    {
      "name": "Object_25",
      "mesh": 16
    },
    {
      "name": "Object_26",
      "mesh": 17
    },
    {
      "name": "Cube_5",
      "translation": [
        1.3143869638442993,
        2.7882583141326904,
        1.1831401586532593
      ],
      "children": [
        28
      ]
    },
    {
      "name": "Object_28",
      "mesh": 18
    },
    {
      "name": "Cube.001_6",
      "translation": [
        1.6599410772323608,
        0.41052913665771484,
        -3.4378883838653564
      ],
      "children": [
        30
      ]
    },
    {
      "name": "Object_30",
      "mesh": 19
    },
    {
      "name": "Cube.003_7",
      "translation": [
        -1.7240469455718994,
        3.1637086868286133,
        1.1694014072418213
      ],
      "children": [
        32
      ]
    },
    {
      "name": "Object_32",
      "mesh": 20
    },
    {
      "name": "Cylinder_8",
      "translation": [
        1.01020085811615,
        2.239729166030884,
        1.235733151435852
      ],
      "children": [
        34
      ]
    },
    {
      "name": "Object_34",
      "mesh": 21
    },
    {
      "name": "InterruptorAmarillo_9",
      "translation": [
        1.6860520839691162,
        2.7882583141326904,
        1.1240479946136475
      ],
      "children": [
        36
      ]
    },
    {
      "name": "Object_36",
      "mesh": 22
    },
    {
      "name": "InterruptorEncendido_10",
      "translation": [
        -1.6348845958709717,
        3.550851345062256,
        0.3243331015110016
      ],
      "children": [
        38
      ]
    },
    {
      "name": "Object_38",
      "mesh": 23
    },
    {
      "name": "InterruptorNegro_11",
      "translation": [
        0.19980087876319885,
        1.304823398590088,
        2.607656955718994
      ],
      "children": [
        40
      ]
    },
    {
      "name": "Object_40",
      "mesh": 24
    },
    {
      "name": "Lente_12",
      "translation": [
        -0.9781641364097595,
        3.3232157230377197,
        1.1691468954086304
      ],
      "children": [
        42
      ]
    },
    {
      "name": "Object_42",
      "mesh": 25
    },
    {
      "name": "Logo_13",
      "translation": [
        0.13303892314434052,
        0.3208688795566559,
        2.7874622344970703
      ],
      "children": [
        44
      ]
    },
    {
      "name": "Object_44",
      "mesh": 26
    },
    {
      "name": "Objetivo_14",
      "translation": [
        0.12734189629554749,
        2.916271209716797,
        1.2304255962371826
      ],
      "children": [
        46,
        47,
        48
      ]
    },
    {
      "name": "Object_46",
      "mesh": 27
    },
    {
      "name": "Object_47",
      "mesh": 28
    },
    {
      "name": "Object_48",
      "mesh": 29
    },
    {
      "name": "off_15",
      "translation": [
        -1.6221001148223877,
        3.3325650691986084,
        0.4665277600288391
      ],
      "children": [
        50
      ]
    },
    {
      "name": "Object_50",
      "mesh": 30
    },
    {
      "name": "Plane.002_16",
      "translation": [
        1.7046421766281128,
        3.4546031951904297,
        1.1869927644729614
      ],
      "children": [
        52
      ]
    },
    {
      "name": "Object_52",
      "mesh": 31
    },
    {
      "name": "type_17",
      "translation": [
        1.6859700679779053,
        0.2424703687429428,
        2.7874622344970703
      ],
      "children": [
        54
      ]
    },
    {
      "name": "Object_54",
      "mesh": 32
    }
  ],
  "scenes": [
    {
      "name": "Sketchfab_Scene",
      "nodes": [
        0
      ]
    }
  ],
  "scene": 0
}